<?xml version="1.0" standalone="no"?><svg class="waves" xmlns="http://www.w3.org/2000/svg" viewBox="0 0 1440 320"><path fill="#4B6D6B" fill-opacity="1" d="M0,192L40,202.7C80,213,160,235,240,218.7C320,203,400,149,480,154.7C560,160,640,224,720,218.7C800,213,880,139,960,133.3C1040,128,1120,192,1200,224C1280,256,1360,256,1400,256L1440,256L1440,320L1400,320C1360,320,1280,320,1200,320C1120,320,1040,320,960,320C880,320,800,320,720,320C640,320,560,320,480,320C400,320,320,320,240,320C160,320,80,320,40,320L0,320Z"></path></svg>
